<svg xmlns="http://www.w3.org/2000/svg" fill="none" viewBox="0 0 495 495">
	<defs />
	<path fill="#fff" d="M0 0h15v15H0zM0 390h15v15H0zM15 0h15v15H15zM15 390h15v15H15zM30 0h15v15H30zM30 390h15v15H30zM45 0h15v15H45zM45 390h15v15H45zM60 0h15v15H60zM60 390h15v15H60zM75 0h15v15H75zM75 390h15v15H75zM90 0h15v15H90zM90 390h15v15H90zM135 0h15v15h-15zM165 0h15v15h-15zM180 15h15v15h-15zM150 15h15v15h-15zM120 30h15v15h-15zM120 45h15v15h-15zM120 60h15v15h-15zM120 75h15v15h-15zM120 90h15v15h-15zM120 105h15v15h-15zM135 105h15v15h-15zM165 105h15v15h-15zM0 120h15v15H0zM30 120h15v15H30zM45 120h15v15H45zM60 120h15v15H60zM75 120h15v15H75zM90 120h15v15H90zM60 135h15v15H60zM15 135h15v15H15zM0 135h15v15H0zM45 150h15v15H45zM0 180h15v15H0zM0 225h15v15H0zM0 240h15v15H0zM0 255h15v15H0zM0 270h15v15H0zM0 300h15v15H0zM0 315h15v15H0zM0 330h15v15H0zM0 345h15v15H0zM0 360h15v15H0zM15 165h15v15H15zM15 210h15v15H15zM15 270h15v15H15zM30 210h15v15H30zM30 270h15v15H30zM30 300h15v15H30zM30 360h15v15H30zM45 180h15v15H45zM45 210h15v15H45zM45 240h15v15H45zM45 255h15v15H45zM45 270h15v15H45zM45 285h15v15H45zM45 315h15v15H45zM45 345h15v15H45zM45 360h15v15H45zM60 210h15v15H60zM60 285h15v15H60zM60 300h15v15H60zM60 315h15v15H60zM60 345h15v15H60zM75 225h15v15H75zM75 300h15v15H75zM75 330h15v15H75zM75 345h15v15H75zM75 360h15v15H75zM90 180h15v15H90zM90 210h15v15H90zM90 240h15v15H90zM90 270h15v15H90zM90 300h15v15H90zM90 330h15v15H90zM90 360h15v15H90zM105 165h15v15h-15zM105 210h15v15h-15zM105 285h15v15h-15zM105 315h15v15h-15zM120 165h15v15h-15zM120 195h15v15h-15zM120 210h15v15h-15zM120 225h15v15h-15zM120 285h15v15h-15zM120 300h15v15h-15zM120 330h15v15h-15zM120 375h15v15h-15zM120 405h15v15h-15zM120 420h15v15h-15zM120 435h15v15h-15zM120 450h15v15h-15zM120 480h15v15h-15zM135 165h15v15h-15zM135 210h15v15h-15zM135 240h15v15h-15zM135 255h15v15h-15zM135 300h15v15h-15zM135 330h15v15h-15zM135 345h15v15h-15zM135 375h15v15h-15zM135 435h15v15h-15zM150 195h15v15h-15zM150 210h15v15h-15zM150 225h15v15h-15zM150 240h15v15h-15zM150 300h15v15h-15zM150 315h15v15h-15zM150 330h15v15h-15zM150 360h15v15h-15zM150 375h15v15h-15zM150 390h15v15h-15zM150 405h15v15h-15zM150 450h15v15h-15zM150 480h15v15h-15zM165 165h15v15h-15zM165 195h15v15h-15zM165 210h15v15h-15zM165 255h15v15h-15zM165 285h15v15h-15zM165 300h15v15h-15zM165 330h15v15h-15zM165 360h15v15h-15zM165 375h15v15h-15zM165 405h15v15h-15zM165 420h15v15h-15zM165 435h15v15h-15zM165 450h15v15h-15zM165 465h15v15h-15zM165 480h15v15h-15zM180 165h15v15h-15zM180 180h15v15h-15zM180 195h15v15h-15zM180 210h15v15h-15zM180 240h15v15h-15zM180 255h15v15h-15zM180 300h15v15h-15zM180 330h15v15h-15zM180 345h15v15h-15zM180 375h15v15h-15zM180 405h15v15h-15zM180 420h15v15h-15zM180 435h15v15h-15zM180 450h15v15h-15zM180 480h15v15h-15zM195 165h15v15h-15zM195 210h15v15h-15zM195 255h15v15h-15zM195 270h15v15h-15zM195 300h15v15h-15zM195 315h15v15h-15zM195 330h15v15h-15zM195 360h15v15h-15zM195 375h15v15h-15zM195 390h15v15h-15zM195 405h15v15h-15zM195 420h15v15h-15zM195 435h15v15h-15zM210 180h15v15h-15zM210 240h15v15h-15zM210 270h15v15h-15zM210 300h15v15h-15zM210 315h15v15h-15zM210 330h15v15h-15zM210 345h15v15h-15zM210 360h15v15h-15zM210 375h15v15h-15zM210 390h15v15h-15zM210 420h15v15h-15zM210 450h15v15h-15zM210 480h15v15h-15zM225 180h15v15h-15zM225 195h15v15h-15zM225 210h15v15h-15zM225 225h15v15h-15zM225 240h15v15h-15zM225 255h15v15h-15zM225 300h15v15h-15zM225 315h15v15h-15zM225 420h15v15h-15zM225 435h15v15h-15zM225 450h15v15h-15zM225 465h15v15h-15zM225 480h15v15h-15zM240 165h15v15h-15zM240 180h15v15h-15zM240 210h15v15h-15zM240 240h15v15h-15zM240 285h15v15h-15zM240 315h15v15h-15zM240 345h15v15h-15zM240 360h15v15h-15zM240 375h15v15h-15zM240 420h15v15h-15zM240 450h15v15h-15zM240 480h15v15h-15zM255 165h15v15h-15zM255 150h15v15h-15zM255 135h15v15h-15zM255 210h15v15h-15zM255 240h15v15h-15zM255 330h15v15h-15zM255 345h15v15h-15zM255 360h15v15h-15zM255 375h15v15h-15zM255 390h15v15h-15zM255 405h15v15h-15zM255 450h15v15h-15zM255 465h15v15h-15zM270 165h15v15h-15zM270 135h15v15h-15zM270 195h15v15h-15zM270 225h15v15h-15zM270 240h15v15h-15zM270 270h15v15h-15zM270 300h15v15h-15zM270 345h15v15h-15zM270 405h15v15h-15zM270 435h15v15h-15zM270 465h15v15h-15zM285 165h15v15h-15zM285 150h15v15h-15zM285 210h15v15h-15zM285 225h15v15h-15zM285 285h15v15h-15zM285 315h15v15h-15zM285 405h15v15h-15zM300 165h15v15h-15zM300 180h15v15h-15zM300 195h15v15h-15zM300 210h15v15h-15zM300 255h15v15h-15zM300 285h15v15h-15zM300 330h15v15h-15zM300 345h15v15h-15zM300 360h15v15h-15zM300 375h15v15h-15zM300 405h15v15h-15zM300 420h15v15h-15zM300 450h15v15h-15zM300 465h15v15h-15zM300 480h15v15h-15zM315 165h15v15h-15zM315 135h15v15h-15zM315 195h15v15h-15zM315 240h15v15h-15zM315 255h15v15h-15zM315 315h15v15h-15zM315 375h15v15h-15zM315 420h15v15h-15zM315 435h15v15h-15zM330 165h15v15h-15zM330 150h15v15h-15zM330 210h15v15h-15zM330 255h15v15h-15zM330 270h15v15h-15zM330 300h15v15h-15zM330 315h15v15h-15zM330 330h15v15h-15zM330 360h15v15h-15zM330 390h15v15h-15zM330 420h15v15h-15zM330 435h15v15h-15zM330 450h15v15h-15zM345 165h15v15h-15zM345 135h15v15h-15zM345 195h15v15h-15zM345 225h15v15h-15zM345 255h15v15h-15zM345 285h15v15h-15zM345 345h15v15h-15zM345 375h15v15h-15zM345 390h15v15h-15zM345 405h15v15h-15zM345 435h15v15h-15zM345 450h15v15h-15zM345 465h15v15h-15zM360 180h15v15h-15zM360 195h15v15h-15zM360 315h15v15h-15zM360 330h15v15h-15zM360 360h15v15h-15zM360 375h15v15h-15zM360 390h15v15h-15zM360 405h15v15h-15zM360 420h15v15h-15zM360 450h15v15h-15zM360 480h15v15h-15zM375 150h15v15h-15zM375 195h15v15h-15zM375 240h15v15h-15zM375 255h15v15h-15zM375 270h15v15h-15zM375 285h15v15h-15zM375 300h15v15h-15zM375 360h15v15h-15zM375 420h15v15h-15zM375 435h15v15h-15zM375 450h15v15h-15zM375 465h15v15h-15zM375 480h15v15h-15zM390 165h15v15h-15zM390 135h15v15h-15zM390 225h15v15h-15zM390 240h15v15h-15zM390 255h15v15h-15zM390 285h15v15h-15zM390 315h15v15h-15zM390 345h15v15h-15zM390 360h15v15h-15zM390 390h15v15h-15zM390 420h15v15h-15zM390 435h15v15h-15zM390 450h15v15h-15zM390 480h15v15h-15zM405 165h15v15h-15zM405 135h15v15h-15zM405 180h15v15h-15zM405 195h15v15h-15zM405 210h15v15h-15zM405 255h15v15h-15zM405 300h15v15h-15zM405 315h15v15h-15zM405 330h15v15h-15zM405 360h15v15h-15zM405 420h15v15h-15zM405 435h15v15h-15zM405 450h15v15h-15zM420 150h15v15h-15zM420 135h15v15h-15zM420 195h15v15h-15zM420 210h15v15h-15zM420 240h15v15h-15zM420 270h15v15h-15zM420 300h15v15h-15zM420 330h15v15h-15zM420 360h15v15h-15zM420 375h15v15h-15zM420 390h15v15h-15zM420 405h15v15h-15zM420 420h15v15h-15zM420 465h15v15h-15zM435 135h15v15h-15zM435 195h15v15h-15zM435 240h15v15h-15zM435 255h15v15h-15zM435 270h15v15h-15zM435 285h15v15h-15zM435 315h15v15h-15zM435 345h15v15h-15zM435 375h15v15h-15zM435 390h15v15h-15zM435 405h15v15h-15zM435 465h15v15h-15zM435 480h15v15h-15zM450 135h15v15h-15zM450 180h15v15h-15zM450 195h15v15h-15zM450 225h15v15h-15zM450 240h15v15h-15zM450 255h15v15h-15zM450 285h15v15h-15zM450 300h15v15h-15zM450 315h15v15h-15zM450 360h15v15h-15zM450 375h15v15h-15zM450 405h15v15h-15zM450 420h15v15h-15zM450 435h15v15h-15zM450 480h15v15h-15zM465 165h15v15h-15zM465 135h15v15h-15zM465 180h15v15h-15zM465 195h15v15h-15zM465 225h15v15h-15zM465 270h15v15h-15zM465 285h15v15h-15zM465 300h15v15h-15zM465 330h15v15h-15zM465 375h15v15h-15zM465 420h15v15h-15zM465 435h15v15h-15zM465 465h15v15h-15zM465 480h15v15h-15zM480 165h15v15h-15zM480 135h15v15h-15zM480 195h15v15h-15zM480 225h15v15h-15zM480 285h15v15h-15zM480 345h15v15h-15zM480 360h15v15h-15zM480 405h15v15h-15zM480 465h15v15h-15zM90 150h15v15H90zM105 150h15v15h-15zM120 150h15v15h-15zM150 150h15v15h-15zM180 150h15v15h-15zM210 150h15v15h-15zM195 150h15v15h-15zM165 150h15v15h-15zM135 120h15v15h-15zM150 120h15v15h-15zM150 135h15v15h-15zM165 135h15v15h-15zM195 135h15v15h-15zM195 120h15v15h-15zM210 105h15v15h-15zM210 120h15v15h-15zM240 105h15v15h-15zM255 105h15v15h-15zM270 105h15v15h-15zM285 105h15v15h-15zM255 120h15v15h-15zM240 135h15v15h-15zM300 120h15v15h-15zM315 120h15v15h-15zM330 120h15v15h-15zM345 105h15v15h-15zM360 105h15v15h-15zM390 120h15v15h-15zM405 120h15v15h-15zM420 120h15v15h-15zM435 120h15v15h-15zM450 120h15v15h-15zM135 45h15v15h-15zM150 45h15v15h-15zM165 45h15v15h-15zM180 45h15v15h-15zM180 60h15v15h-15zM180 75h15v15h-15zM180 90h15v15h-15zM165 75h15v15h-15zM150 75h15v15h-15zM150 90h15v15h-15zM195 75h15v15h-15zM210 75h15v15h-15zM210 60h15v15h-15zM225 45h15v15h-15zM225 60h15v15h-15zM240 60h15v15h-15zM255 75h15v15h-15zM270 90h15v15h-15zM270 75h15v15h-15zM270 60h15v15h-15zM270 45h15v15h-15zM270 30h15v15h-15zM270 15h15v15h-15zM285 15h15v15h-15zM285 30h15v15h-15zM300 30h15v15h-15zM315 30h15v15h-15zM330 15h15v15h-15zM345 15h15v15h-15zM360 15h15v15h-15zM345 30h15v15h-15zM330 45h15v15h-15zM315 60h15v15h-15zM300 75h15v15h-15zM300 45h15v15h-15zM360 30h15v15h-15zM345 60h15v15h-15zM345 75h15v15h-15zM330 75h15v15h-15zM330 90h15v15h-15zM300 90h15v15h-15zM360 90h15v15h-15zM240 90h15v15h-15zM210 90h15v15h-15zM135 30h15v15h-15zM165 30h15v15h-15zM210 30h15v15h-15zM210 0h15v15h-15zM240 0h15v15h-15zM270 0h15v15h-15zM300 0h15v15h-15zM285 0h15v15h-15zM315 0h15v15h-15zM345 0h15v15h-15zM390 0h15v15h-15zM390 90h15v15h-15zM390 75h15v15h-15zM390 60h15v15h-15zM390 45h15v15h-15zM390 30h15v15h-15zM390 15h15v15h-15zM480 15h15v15h-15zM480 30h15v15h-15zM480 45h15v15h-15zM480 60h15v15h-15zM480 75h15v15h-15zM405 0h15v15h-15zM405 90h15v15h-15zM420 0h15v15h-15zM420 90h15v15h-15zM435 0h15v15h-15zM435 90h15v15h-15zM450 0h15v15h-15zM450 90h15v15h-15zM465 0h15v15h-15zM465 90h15v15h-15zM480 0h15v15h-15zM480 90h15v15h-15zM90 15h15v15H90zM90 405h15v15H90zM90 30h15v15H90zM90 420h15v15H90zM90 45h15v15H90zM90 435h15v15H90zM90 450h15v15H90zM90 60h15v15H90zM90 75h15v15H90zM90 465h15v15H90zM90 90h15v15H90zM90 480h15v15H90zM75 90h15v15H75zM75 480h15v15H75zM60 90h15v15H60zM60 480h15v15H60zM45 90h15v15H45zM45 480h15v15H45zM30 90h15v15H30zM30 480h15v15H30zM15 90h15v15H15zM15 480h15v15H15zM0 90h15v15H0zM0 480h15v15H0zM0 75h15v15H0zM0 465h15v15H0zM0 60h15v15H0zM0 450h15v15H0zM0 45h15v15H0zM0 435h15v15H0zM0 30h15v15H0zM0 420h15v15H0zM0 15h15v15H0zM0 405h15v15H0zM30 30h15v15H30zM420 30h15v15h-15zM30 420h15v15H30zM30 45h15v15H30zM420 45h15v15h-15zM30 435h15v15H30zM30 60h15v15H30zM420 60h15v15h-15zM30 450h15v15H30zM45 30h15v15H45zM435 30h15v15h-15zM45 420h15v15H45zM45 45h15v15H45zM435 45h15v15h-15zM45 435h15v15H45zM45 60h15v15H45zM435 60h15v15h-15zM45 450h15v15H45zM60 30h15v15H60zM450 30h15v15h-15zM60 420h15v15H60zM60 45h15v15H60zM450 45h15v15h-15zM60 435h15v15H60zM60 60h15v15H60zM450 60h15v15h-15zM60 450h15v15H60z" />
</svg>
