<svg width="130" height="49" viewBox="0 0 130 49" fill="none" xmlns="http://www.w3.org/2000/svg">
	<path d="M22.04 20.48L9.28 25L22.04 29.52V35.36L2.32 28.08V21.92L22.04 14.64V20.48Z" fill="#0F1630" />
	<path d="M100.72 5.32H107.48L94.28 43H87.52L100.72 5.32ZM127.642 21.92V28.08L107.922 35.36V29.52L120.682 25L107.922 20.48V14.64L127.642 21.92Z" fill="#0F1630" />
	<path d="M57.216 12.8L46.308 38H40.548L29.676 12.8H35.976L43.644 30.8L51.42 12.8H57.216ZM77.824 24.896C79.264 25.352 80.392 26.12 81.208 27.2C82.024 28.256 82.432 29.564 82.432 31.124C82.432 33.332 81.568 35.036 79.84 36.236C78.136 37.412 75.64 38 72.352 38H59.32V12.8H71.632C74.704 12.8 77.056 13.388 78.688 14.564C80.344 15.74 81.172 17.336 81.172 19.352C81.172 20.576 80.872 21.668 80.272 22.628C79.696 23.588 78.88 24.344 77.824 24.896ZM65.116 17.192V23.132H70.912C72.352 23.132 73.444 22.88 74.188 22.376C74.932 21.872 75.304 21.128 75.304 20.144C75.304 19.16 74.932 18.428 74.188 17.948C73.444 17.444 72.352 17.192 70.912 17.192H65.116ZM71.92 33.608C73.456 33.608 74.608 33.356 75.376 32.852C76.168 32.348 76.564 31.568 76.564 30.512C76.564 28.424 75.016 27.38 71.92 27.38H65.116V33.608H71.92Z" fill="#0F1630" />
</svg>
